<svg width="24" height="24" viewBox="0 0 24 24" fill="none" xmlns="http://www.w3.org/2000/svg">
<circle cx="12" cy="12" r="12" fill="url(#paint0_linear_961_1308)"/>
<g clip-path="url(#clip0_961_1308)">
<path d="M13.2787 15.7051C13.2677 15.2513 13.1819 14.832 13.0305 14.4551C12.709 13.6526 12.0956 13.0448 11.3044 12.7355C10.9189 12.5831 10.4928 12.5015 10.0355 12.5015C9.98557 12.5015 9.93719 12.503 9.88881 12.5046C8.08619 12.5737 6.77832 13.9148 6.77832 15.8056C6.77832 16.1322 6.81734 16.4416 6.89225 16.7306H8.15174C8.04873 16.4542 7.99411 16.1433 7.99411 15.8056C7.99411 14.4943 8.82441 13.5803 10.0386 13.5803C10.0839 13.5803 10.1276 13.5819 10.1713 13.5835C11.1889 13.6416 11.924 14.3734 12.0598 15.4397C12.0754 15.5575 12.0832 15.6784 12.0832 15.8041C12.0832 16.1417 12.027 16.4542 11.9224 16.7291H13.171C13.2459 16.4401 13.2849 16.1307 13.2849 15.8041C13.2818 15.7726 13.2818 15.7381 13.2787 15.7051Z" fill="white"/>
<path d="M13.6543 7.26855C11.5333 7.26855 9.97729 8.80757 9.97729 10.9967C9.97729 11.1679 9.98666 11.3344 10.0054 11.4946C10.0475 11.8856 10.1443 12.2484 10.2863 12.5829C10.6531 13.4497 11.3242 14.1062 12.1888 14.4517C12.5649 14.6024 12.9785 14.6951 13.4202 14.7171C13.4982 14.7218 13.5763 14.7233 13.6543 14.7233C15.7597 14.7233 17.3158 13.1859 17.3158 10.9952C17.3158 8.80757 15.7581 7.26855 13.6543 7.26855ZM13.6543 13.5063C13.4858 13.5063 13.3234 13.4906 13.1689 13.4592C12.2871 13.288 11.6488 12.6441 11.4303 11.727C11.3741 11.4993 11.346 11.2543 11.346 10.9967C11.346 9.5174 12.2825 8.4872 13.6528 8.4872C15.0074 8.4872 15.9595 9.5174 15.9595 10.9967C15.9595 12.4776 15.009 13.5063 13.6543 13.5063Z" fill="white"/>
</g>
<defs>
<linearGradient id="paint0_linear_961_1308" x1="0" y1="0" x2="24" y2="24" gradientUnits="userSpaceOnUse">
<stop stop-color="#F45729"/>
<stop offset="1" stop-color="#4326EF"/>
</linearGradient>
<clipPath id="clip0_961_1308">
<rect width="10.6576" height="9.6" fill="white" transform="translate(6.71997 7.2002)"/>
</clipPath>
</defs>
</svg>
