<svg width="105" height="21" viewBox="0 0 105 21" fill="none" xmlns="http://www.w3.org/2000/svg">
<g clip-path="url(#clip0_1262_4302)">
<path d="M2.17745 8.81968C2.17745 12.4146 4.26716 14.4565 7.31643 14.4565C9.83262 14.4565 11.8797 13.1803 11.8797 10.181C11.8797 9.92579 11.6878 9.73434 11.4319 9.73434H7.33775C7.08188 9.73434 6.88996 9.54291 6.88996 9.28765V8.37298C6.88996 8.11773 7.08188 7.92629 7.33775 7.92629H13.3083C13.5642 7.92629 13.7561 8.11773 13.7561 8.37298V15.8604C13.7561 16.1157 13.5642 16.3071 13.3083 16.3071H12.4554C12.2422 16.3071 12.0503 16.137 12.0076 15.903V15.1585C11.9863 14.7969 11.5385 14.648 11.3039 14.8608C10.3658 15.7328 8.89438 16.3071 7.16717 16.3071C2.9451 16.3071 0.0664062 13.2866 0.0664062 8.7346C0.0664062 4.24636 2.96642 1.05566 7.33775 1.05566C10.3444 1.05566 12.7753 2.67228 13.4577 5.22484C13.5429 5.50136 13.3297 5.77789 13.0525 5.77789H11.773C11.5811 5.77789 11.4532 5.67154 11.3679 5.50136C10.7282 3.79966 9.17159 2.9488 7.31643 2.9488C4.09657 2.97008 2.17745 5.30992 2.17745 8.81968Z" fill="#4326EF"/>
<path d="M21.987 7.64991C21.987 7.86262 21.8805 8.05406 21.6246 8.05406H21.1554C19.3429 8.05406 18.1914 9.13889 18.1914 11.0958V15.967C18.1914 16.1797 18.0209 16.3711 17.7863 16.3711H16.6561C16.4429 16.3711 16.251 16.201 16.251 15.967V6.75651C16.251 6.5438 16.4216 6.35236 16.6561 6.35236H17.701C17.9142 6.35236 18.0849 6.52253 18.0849 6.71398C18.1062 7.07559 18.5326 7.20321 18.7672 6.96923C19.2789 6.45872 20.0253 6.13965 20.9635 6.13965C21.2194 6.13965 21.4113 6.16092 21.6459 6.20346C21.8378 6.22473 21.9657 6.39491 21.9657 6.58635V7.64991H21.987Z" fill="#4326EF"/>
<path d="M48.7479 6.35254H47.106C47.0207 6.35254 46.978 6.41635 46.9355 6.45889L45.2935 11.5214C45.1016 12.1171 44.931 12.6488 44.8244 13.1806C44.7604 13.3508 44.5258 13.3508 44.5045 13.1806C44.3339 12.5424 44.142 11.8618 44.0354 11.5214L42.4149 6.45889C42.3935 6.37381 42.3295 6.35254 42.2442 6.35254H40.5383C40.453 6.35254 40.4104 6.41635 40.3678 6.45889L38.7258 11.5214C38.4699 12.3085 38.214 13.0743 37.9796 13.9039L36.3589 10.1814C36.3376 10.0963 36.2736 10.075 36.1883 10.075H34.6104C34.5038 10.075 34.4184 10.1814 34.4398 10.2877L37.0626 16.1799C37.0839 16.2649 37.1479 16.2863 37.2332 16.2863H38.8752C38.9604 16.2863 39.0031 16.2224 39.0457 16.1799L40.7516 10.9471L41.242 9.33052C41.306 9.16034 41.5406 9.16034 41.5618 9.33052C41.6685 9.77721 41.8391 10.309 42.031 10.9258L43.7369 16.1586C43.7582 16.2437 43.8221 16.2649 43.9075 16.2649H45.4641C45.5494 16.2649 45.5921 16.2011 45.6347 16.1586L48.9186 6.50144C48.9399 6.4589 48.8546 6.35254 48.7479 6.35254Z" fill="#4326EF"/>
<path d="M51.5625 16.0517V6.35205C51.5625 6.18188 51.4346 6.05426 51.264 6.05426H49.9206C49.75 6.05426 49.6221 5.92663 49.6221 5.75645V4.73543C49.6221 4.56527 49.75 4.43764 49.9206 4.43764H51.264C51.4346 4.43764 51.5625 4.31001 51.5625 4.13984V1.62983C51.5625 1.45966 51.6904 1.33203 51.8611 1.33203H53.1832C53.3537 1.33203 53.4816 1.45966 53.4816 1.62983V4.13984C53.4816 4.31001 53.6096 4.43764 53.7802 4.43764H55.1236C55.2941 4.43764 55.4221 4.56527 55.4221 4.73543V5.75645C55.4221 5.92663 55.2941 6.05426 55.1236 6.05426H53.7802C53.6096 6.05426 53.4816 6.18188 53.4816 6.35205V16.0305C53.4816 16.2006 53.3537 16.3282 53.1832 16.3282H51.8611C51.6904 16.3496 51.5625 16.2006 51.5625 16.0517Z" fill="#4326EF"/>
<path d="M57.1494 16.1794V1.45966C57.1494 1.37457 57.2134 1.33203 57.2774 1.33203H58.9193C59.0046 1.33203 59.0473 1.39584 59.0473 1.45966V7.45816C59.0473 7.58578 59.2178 7.6496 59.3032 7.54325C59.751 6.96892 60.3693 6.52223 61.1369 6.28824C63.6958 5.5012 66.2333 7.5007 66.2333 10.1383V16.2219C66.2333 16.307 66.1693 16.3496 66.1053 16.3496H64.4634C64.3781 16.3496 64.3355 16.2858 64.3355 16.2219V10.6914C64.3355 8.67062 63.3759 7.84104 61.9473 7.84104C60.0921 7.84104 59.0686 9.18113 59.0686 10.9041V16.2219C59.0686 16.307 59.0046 16.3496 58.9406 16.3496H57.2986C57.2347 16.3496 57.1494 16.2644 57.1494 16.1794Z" fill="#4326EF"/>
<path d="M67.9183 16.0099L73.1212 1.75806C73.1425 1.65169 73.2492 1.58789 73.3771 1.58789H75.2322C75.3388 1.58789 75.4241 1.65169 75.4881 1.75806L80.7337 16.0099C80.7977 16.18 80.6698 16.3714 80.4778 16.3714H78.9212C78.8146 16.3714 78.7293 16.3076 78.6654 16.2013L77.4712 12.8616C77.4499 12.7553 77.3432 12.6915 77.2153 12.6915H71.3513C71.2447 12.6915 71.1594 12.7553 71.0954 12.8616L69.9227 16.2013C69.9014 16.3076 69.7947 16.3714 69.6668 16.3714H68.1315C67.9822 16.3502 67.8543 16.18 67.9183 16.0099ZM72.1829 10.9259H76.469C76.6396 10.9259 76.7675 10.7558 76.7249 10.5644L74.5925 4.73604C74.5072 4.52332 74.1874 4.52332 74.1021 4.73604L71.9697 10.5644C71.8844 10.7558 71.991 10.9259 72.1829 10.9259Z" fill="#4326EF"/>
<path d="M94.9781 6.03315H96.3855C96.4708 6.03315 96.5561 6.11823 96.5774 6.20332L96.6627 7.26688C96.6627 7.43705 96.876 7.4796 96.9825 7.35197C97.7289 6.2884 98.9231 5.73535 100.33 5.73535C103.209 5.73535 105 7.86247 105 10.9256C105 13.9673 103.337 16.2646 100.33 16.2646C98.9657 16.2646 97.7716 15.7754 97.0679 14.8607C96.9613 14.7331 96.7481 14.7969 96.7481 14.9671V20.3062C96.7481 20.4126 96.6627 20.4976 96.5561 20.4976H94.9995C94.8929 20.4976 94.8076 20.4126 94.8076 20.3062V6.22459C94.8076 6.09696 94.8716 6.03315 94.9781 6.03315ZM99.9039 14.563C101.887 14.563 103.038 13.0952 103.038 11.0532C103.038 9.01112 101.866 7.52213 99.9039 7.52213C97.9635 7.52213 96.7481 8.96859 96.7481 11.0532C96.7481 13.0739 97.9421 14.563 99.9039 14.563Z" fill="#4326EF"/>
<path d="M82.61 6.03315H84.0173C84.1027 6.03315 84.188 6.11823 84.2093 6.20332L84.2946 7.26688C84.2946 7.43705 84.5078 7.4796 84.6144 7.35197C85.3607 6.2884 86.5549 5.73535 87.9623 5.73535C90.8409 5.73535 92.6321 7.86247 92.6321 10.9256C92.6321 13.9673 90.9688 16.2646 87.9623 16.2646C86.5975 16.2646 85.4034 15.7754 84.6997 14.8607C84.5931 14.7331 84.3799 14.7969 84.3799 14.9671V20.3062C84.3799 20.4126 84.2946 20.4976 84.188 20.4976H82.6314C82.5247 20.4976 82.4395 20.4126 82.4395 20.3062V6.22459C82.4395 6.09696 82.5247 6.03315 82.61 6.03315ZM87.5358 14.563C89.5189 14.563 90.6704 13.0952 90.6704 11.0532C90.6704 9.01112 89.4975 7.52213 87.5358 7.52213C85.574 7.52213 84.3799 8.96859 84.3799 11.0532C84.3799 13.0739 85.574 14.563 87.5358 14.563Z" fill="#4326EF"/>
<path d="M31.4332 14.5627C31.4118 13.797 31.2625 13.1162 31.0066 12.4782C30.4736 11.1381 29.4286 10.1383 28.1066 9.60652C27.4669 9.35126 26.7419 9.22363 25.9743 9.22363C25.8889 9.22363 25.8037 9.22363 25.7184 9.22363C22.6905 9.32999 20.4941 11.5634 20.4941 14.7329C20.4941 15.2859 20.5581 15.7964 20.6861 16.2645H22.797C22.6265 15.7964 22.5198 15.2859 22.5198 14.7329C22.5198 12.542 23.9272 11.0317 25.9529 11.0317C26.0383 11.0317 26.1022 11.0317 26.1875 11.0317C27.8934 11.1381 29.1302 12.3506 29.3647 14.1373C29.3861 14.3287 29.4074 14.5415 29.4074 14.7542C29.4074 15.3073 29.3221 15.839 29.1302 16.2857H31.2198C31.3478 15.7964 31.4118 15.2859 31.4118 14.7542C31.4332 14.6691 31.4332 14.6265 31.4332 14.5627Z" fill="url(#paint0_linear_1262_4302)"/>
<path d="M32.0735 0.50293C28.5125 0.50293 25.8896 3.07676 25.8896 6.71414C25.8896 7.01194 25.911 7.26719 25.9323 7.54372C25.9963 8.20313 26.1669 8.79873 26.4014 9.35178C27.0198 10.7982 28.1499 11.883 29.6 12.4787C30.2397 12.7339 30.922 12.8828 31.6684 12.9254C31.7963 12.9254 31.9243 12.9466 32.0522 12.9466C35.5919 12.9466 38.2147 10.3728 38.2147 6.73542C38.2147 3.07676 35.6132 0.50293 32.0735 0.50293ZM32.0735 10.9046C31.7963 10.9046 31.5191 10.8833 31.2632 10.8195C29.7919 10.5217 28.7044 9.45814 28.3419 7.9266C28.2566 7.54372 28.1926 7.13957 28.1926 6.71414C28.1926 4.24668 29.7706 2.5237 32.0735 2.5237C34.3552 2.5237 35.9545 4.24668 35.9545 6.71414C35.9331 9.18161 34.3338 10.9046 32.0735 10.9046Z" fill="url(#paint1_linear_1262_4302)"/>
</g>
<defs>
<linearGradient id="paint0_linear_1262_4302" x1="29.6425" y1="17.8654" x2="22.3052" y2="10.5101" gradientUnits="userSpaceOnUse">
<stop stop-color="#4326EF"/>
<stop offset="0.1163" stop-color="#502AE0"/>
<stop offset="0.3399" stop-color="#7333B9"/>
<stop offset="0.648" stop-color="#AC4379"/>
<stop offset="1" stop-color="#F45729"/>
</linearGradient>
<linearGradient id="paint1_linear_1262_4302" x1="36.5079" y1="11.1611" x2="27.6235" y2="2.25476" gradientUnits="userSpaceOnUse">
<stop stop-color="#4326EF"/>
<stop offset="0.1163" stop-color="#502AE0"/>
<stop offset="0.3399" stop-color="#7333B9"/>
<stop offset="0.648" stop-color="#AC4379"/>
<stop offset="1" stop-color="#F45729"/>
</linearGradient>
<clipPath id="clip0_1262_4302">
<rect width="105" height="20" fill="white" transform="translate(0 0.5)"/>
</clipPath>
</defs>
</svg>
